<svg xmlns="http://www.w3.org/2000/svg" xmlns:xlink="http://www.w3.org/1999/xlink">
    <symbol id="arrow" width="64" height="64" viewBox="0 0 64 64" fill="none" xmlns="http://www.w3.org/2000/svg">
        <svg width="64" height="64" viewBox="0 0 64 64" fill="none" xmlns="http://www.w3.org/2000/svg">
        <circle cx="32" cy="32" r="32" fill="#3271D2"/>
        <path d="M19.9999 30.4848V33.5152H38.1817L29.8484 41.8485L31.9999 44L43.9999 32L31.9999 20L29.8484 22.1515L38.1817 30.4848H19.9999Z" fill="white"/>
        </svg>
    </symbol>

    <symbol id="check-round" width="25" height="24" viewBox="0 0 25 24" fill="none" xmlns="http://www.w3.org/2000/svg">
        <path fill-rule="evenodd" clip-rule="evenodd" d="M12.1081 0C5.44865 0 0 5.4 0 12C0 18.6 5.44865 24 12.1081 24C18.7676 24 24.2162 18.6 24.2162 12C24.2162 5.4 18.7676 0 12.1081 0ZM9.68648 17.9995L3.63243 11.9995L5.32757 10.3195L9.68648 14.6395L18.8886 5.51953L20.5838 7.19953L9.68648 17.9995Z" fill="#25A2AF" />
    </symbol>

    <symbol id="check-round-dark" width="25" height="24" viewBox="0 0 25 24" fill="none" xmlns="http://www.w3.org/2000/svg">
        <path fill-rule="evenodd" clip-rule="evenodd" d="M12.1802 0C5.52074 0 0.0720825 5.4 0.0720825 12C0.0720825 18.6 5.52074 24 12.1802 24C18.8397 24 24.2883 18.6 24.2883 12C24.2883 5.4 18.8397 0 12.1802 0ZM9.75858 17.9995L3.70452 11.9995L5.39966 10.3195L9.75858 14.6395L18.9608 5.51953L20.6559 7.19953L9.75858 17.9995Z" fill="#132E57" />
    </symbol>

    <symbol id="check" width="17" height="16" viewBox="0 0 17 16" fill="none" xmlns="http://www.w3.org/2000/svg">
        <path fill-rule="evenodd" clip-rule="evenodd" d="M16.2913 0.358905C16.9463 0.938539 17.0662 2.01528 16.559 2.76388L8.04181 15.3352C7.7847 15.7147 7.40016 15.9537 6.98169 15.9939C6.56321 16.0342 6.14912 15.8722 5.84009 15.5472L1.35735 10.8329C0.747749 10.1918 0.70831 9.10735 1.26926 8.41066C1.83021 7.71397 2.77914 7.6689 3.38874 8.30999L6.66966 11.7604L14.187 0.664838C14.6941 -0.0837578 15.6363 -0.220729 16.2913 0.358905Z" fill="#3271D2" />
    </symbol>

    <symbol id="hint" width="16" height="16" viewBox="0 0 16 16" fill="none" xmlns="http://www.w3.org/2000/svg">
        <path fill-rule="evenodd" clip-rule="evenodd" d="M16 8C16 12.4183 12.4183 16 8 16C3.58172 16 0 12.4183 0 8C0 3.58172 3.58172 0 8 0C12.4183 0 16 3.58172 16 8ZM9.54321 8.12092L10.1832 7.46669C10.5885 7.05425 10.8445 6.49247 10.8445 5.86669C10.8445 5.1123 10.5449 4.3888 10.0114 3.85537C9.47798 3.32193 8.75449 3.02225 8.0001 3.02225C7.2457 3.02225 6.52221 3.32193 5.98877 3.85537C5.45534 4.3888 5.15565 5.1123 5.15565 5.86669H6.57788C6.57788 5.4895 6.72772 5.12775 6.99443 4.86103C7.26115 4.59431 7.6229 4.44447 8.0001 4.44447C8.78232 4.44447 9.42232 5.07736 9.42232 5.86669C9.42232 6.25781 9.26587 6.61336 9.00276 6.86936L8.12099 7.76536C7.60899 8.27736 7.28899 8.98847 7.28899 9.77781V10.1334H8.71121C8.71121 9.06669 9.03121 8.63292 9.54321 8.12092ZM7.28899 11.5556V12.9778H8.71121V11.5556H7.28899Z" fill="#3271D2" />
    </symbol>

    <symbol id="plus" width="20" height="20" viewBox="0 0 20 20" fill="none" xmlns="http://www.w3.org/2000/svg">
        <path d="M2 9.80908H18" stroke="#3271D2" stroke-width="2.3" stroke-miterlimit="10" stroke-linecap="round" />
        <path d="M10 2L10 18" stroke="#3271D2" stroke-width="2.3" stroke-miterlimit="10" stroke-linecap="round" />
    </symbol>

    <symbol id="search" width="16" height="16" viewBox="0 0 16 16" fill="none" xmlns="http://www.w3.org/2000/svg">
        <path d="M5.94286 0C7.519 0 9.03059 0.62612 10.1451 1.74062C11.2596 2.85512 11.8857 4.36671 11.8857 5.94286C11.8857 7.41486 11.3463 8.768 10.4594 9.81029L10.7063 10.0571H11.4286L16 14.6286L14.6286 16L10.0571 11.4286V10.7063L9.81029 10.4594C8.768 11.3463 7.41486 11.8857 5.94286 11.8857C4.36671 11.8857 2.85512 11.2596 1.74062 10.1451C0.62612 9.03059 0 7.519 0 5.94286C0 4.36671 0.62612 2.85512 1.74062 1.74062C2.85512 0.62612 4.36671 0 5.94286 0ZM5.94286 1.82857C3.65714 1.82857 1.82857 3.65714 1.82857 5.94286C1.82857 8.22857 3.65714 10.0571 5.94286 10.0571C8.22857 10.0571 10.0571 8.22857 10.0571 5.94286C10.0571 3.65714 8.22857 1.82857 5.94286 1.82857Z" fill="white" />
    </symbol>

    <symbol id="non-available" width="25" height="24" viewBox="0 0 25 24" fill="none" xmlns="http://www.w3.org/2000/svg">
        <path d="M12.1802 0C18.876 0 24.2883 5.364 24.2883 12C24.2883 18.636 18.876 24 12.1802 24C5.48441 24 0.0720825 18.636 0.0720825 12C0.0720825 5.364 5.48441 0 12.1802 0ZM16.527 6L12.1802 10.308L7.83338 6L6.12613 7.692L10.4729 12L6.12613 16.308L7.83338 18L12.1802 13.692L16.527 18L18.2342 16.308L13.8874 12L18.2342 7.692L16.527 6Z" fill="#DDDEE0" />
    </symbol>

    <symbol id="check-dark" width="17" height="16" viewBox="0 0 17 16" fill="none" xmlns="http://www.w3.org/2000/svg">
        <path fill-rule="evenodd" clip-rule="evenodd" d="M16.4026 0.358905C17.0577 0.938539 17.1775 2.01528 16.6703 2.76388L8.15313 15.3352C7.89602 15.7147 7.51149 15.9537 7.09301 15.9939C6.67454 16.0342 6.26045 15.8722 5.95142 15.5472L1.46868 10.8329C0.859077 10.1918 0.819638 9.10735 1.38059 8.41066C1.94154 7.71397 2.89047 7.6689 3.50007 8.30999L6.78098 11.7604L14.2983 0.664838C14.8055 -0.0837578 15.7476 -0.220729 16.4026 0.358905Z" fill="#132E57"/>
    </symbol>    

    <view id="arrow__view" viewBox="0 0 64 64"/>
    <view id="check-round__view" viewBox="64 0 25 24"/>
    <view id="check-round-dark__view" viewBox="89 0 25 24"/>
    <view id="check__view" viewBox="114 0 17 16"/>
    <view id="hint__view" viewBox="131 0 16 16"/>
    <view id="plus__view" viewBox="147 0 20 20"/>
    <view id="search__view" viewBox="167 0 16 16"/>
    <view id="non-available__view" viewBox="183 0 25 24"/>
    <view id="check-dark__view" viewBox="208 0 17 16"/>

    <use xlink:href="#arrow" width="64"/>
    <use xlink:href="#check-round" width="25" x="64"/>
    <use xlink:href="#check-round-dark" width="25" x="89"/>
    <use xlink:href="#check" width="17" x="114"/>
    <use xlink:href="#hint" width="16" x="131"/>
    <use xlink:href="#plus" width="20" x="147"/>
    <use xlink:href="#search" width="16" x="167"/>
    <use xlink:href="#non-available" width="25" x="183"/>
    <use xlink:href="#check-dark" width="17" x="208"/>
</svg>