<svg width="55" height="55" fill="none" xmlns="http://www.w3.org/2000/svg"><path d="M27.064 5.184C15 5.184 5.183 15 5.183 27.065s9.816 21.881 21.881 21.881c12.066 0 21.882-9.816 21.882-21.881S39.13 5.184 27.064 5.184zm0 41.417c-10.772 0-19.536-8.764-19.536-19.536 0-10.772 8.764-19.537 19.536-19.537 10.773 0 19.536 8.765 19.536 19.537 0 10.772-8.763 19.536-19.536 19.536z" fill="#FAD264"/><path d="M32.593 23.51l-4.72 4.72V11.441a1.173 1.173 0 00-2.345 0V31.06c0 .077.008.155.024.23.006.034.018.064.028.097.012.04.022.082.039.123.016.039.038.074.058.111.016.03.03.062.05.091.085.129.196.24.325.326.024.016.05.027.075.04.042.023.082.048.127.067.035.014.072.023.108.034.037.011.072.025.11.032a1.174 1.174 0 00.458 0c.038-.007.074-.021.111-.033.036-.01.072-.019.107-.033.046-.019.088-.044.13-.068.024-.014.049-.024.072-.04.066-.043.127-.092.181-.148l6.721-6.72a1.173 1.173 0 00-1.659-1.66z" fill="#FAD264"/><path d="M27.065 0C12.14 0 0 12.141 0 27.065 0 41.99 12.141 54.13 27.065 54.13c14.923 0 27.065-12.141 27.065-27.065C54.13 12.142 41.988 0 27.065 0zm0 51.784c-13.63 0-24.72-11.09-24.72-24.72 0-13.63 11.089-24.72 24.72-24.72 13.63 0 24.719 11.09 24.719 24.72 0 13.63-11.09 24.72-24.72 24.72z" fill="#FAD264"/></svg>